<svg width="109" height="44" viewBox="0 0 109 44" fill="none" xmlns="http://www.w3.org/2000/svg">
<path d="M6.86166 26.8353C5.43551 26.8353 4.21118 26.5442 3.18865 25.9625C2.16613 25.3678 1.37906 24.5469 0.827435 23.4997C0.275812 22.4395 0 21.2178 0 19.8345C0 18.451 0.275812 17.2294 0.827435 16.1693C1.37906 15.1091 2.16613 14.2817 3.18865 13.687C4.21118 13.0923 5.43551 12.7949 6.86166 12.7949C8.5569 12.7949 9.94268 13.2022 11.019 14.0167C12.1088 14.8182 12.7882 15.9494 13.0573 17.4104H10.2118C10.0369 16.6734 9.66014 16.0981 9.08161 15.6844C8.51654 15.2578 7.76309 15.0445 6.8213 15.0445C5.51623 15.0445 4.49372 15.4711 3.75374 16.3244C3.01375 17.1777 2.64376 18.3477 2.64376 19.8345C2.64376 21.3212 3.01375 22.4913 3.75374 23.3446C4.49372 24.1849 5.51623 24.6051 6.8213 24.6051C7.76309 24.6051 8.51654 24.4111 9.08161 24.0232C9.66014 23.6224 10.0369 23.073 10.2118 22.3749H13.0573C12.7882 23.7711 12.1088 24.8637 11.019 25.6522C9.94268 26.4409 8.5569 26.8353 6.86166 26.8353Z" fill="#0C122A"/>
<path d="M14.1738 26.6014V16.9827H16.4744L16.7166 18.7862C17.0799 18.1657 17.571 17.6743 18.1899 17.3124C18.8223 16.9375 19.5622 16.75 20.4098 16.75V19.3681H19.6834C19.1183 19.3681 18.6137 19.4521 18.1697 19.6201C17.7257 19.7881 17.3759 20.079 17.1203 20.4928C16.8781 20.9064 16.757 21.4817 16.757 22.2187V26.6014H14.1738Z" fill="#0C122A"/>
<path d="M25.7511 26.8343C24.742 26.8343 23.8473 26.6273 23.067 26.2136C22.2867 25.7998 21.6745 25.2181 21.2305 24.4683C20.7865 23.7185 20.5645 22.8522 20.5645 21.8697C20.5645 20.8741 20.7797 19.9885 21.2103 19.2129C21.6543 18.4372 22.2597 17.836 23.0266 17.4093C23.8069 16.9698 24.7218 16.75 25.7713 16.75C26.7534 16.75 27.6212 16.9568 28.3746 17.3706C29.1282 17.7842 29.7134 18.3531 30.1305 19.0771C30.561 19.7881 30.7763 20.5833 30.7763 21.4625C30.7763 21.6047 30.7696 21.7533 30.7561 21.9084C30.7561 22.0636 30.7494 22.2251 30.7359 22.3932H23.1276C23.1813 23.1432 23.4504 23.7313 23.9348 24.158C24.4325 24.5846 25.0312 24.7979 25.7309 24.7979C26.2557 24.7979 26.6928 24.6881 27.0427 24.4683C27.406 24.2356 27.6751 23.9382 27.85 23.5763H30.4735C30.2852 24.1839 29.9691 24.7397 29.5251 25.244C29.0945 25.7352 28.5562 26.1232 27.9104 26.4076C27.2782 26.692 26.5583 26.8343 25.7511 26.8343ZM25.7713 18.7669C25.1389 18.7669 24.5806 18.9414 24.0962 19.2905C23.6118 19.6266 23.3024 20.1438 23.1679 20.8418H28.1526C28.1124 20.2084 27.8702 19.7041 27.4262 19.3292C26.9821 18.9543 26.4306 18.7669 25.7713 18.7669Z" fill="#0C122A"/>
<path d="M36.4408 26.8342C35.4989 26.8342 34.658 26.6143 33.9181 26.1748C33.1782 25.7352 32.5928 25.134 32.1624 24.3712C31.7319 23.6085 31.5166 22.7423 31.5166 21.7727C31.5166 20.803 31.7319 19.9433 32.1624 19.1933C32.5928 18.4306 33.1782 17.8359 33.9181 17.4093C34.658 16.9697 35.4989 16.7499 36.4408 16.7499C37.1942 16.7499 37.8535 16.8857 38.4185 17.1571C38.9836 17.4287 39.4411 17.81 39.7908 18.3013V12.6387H42.3741V26.6013H40.0734L39.7908 25.2245C39.468 25.6511 39.0374 26.026 38.4993 26.3493C37.9745 26.6725 37.2885 26.8342 36.4408 26.8342ZM36.9857 24.6622C37.8198 24.6622 38.4993 24.397 39.024 23.867C39.5622 23.324 39.8312 22.6324 39.8312 21.792C39.8312 20.9517 39.5622 20.2665 39.024 19.7363C38.4993 19.1933 37.8198 18.9219 36.9857 18.9219C36.165 18.9219 35.4855 19.1869 34.9474 19.717C34.4093 20.247 34.1401 20.9322 34.1401 21.7727C34.1401 22.613 34.4093 23.3046 34.9474 23.8476C35.4855 24.3906 36.165 24.6622 36.9857 24.6622Z" fill="#0C122A"/>
<path d="M45.2873 15.4894C44.8164 15.4894 44.4262 15.3537 44.1169 15.0822C43.8208 14.8107 43.6729 14.4681 43.6729 14.0543C43.6729 13.6406 43.8208 13.3045 44.1169 13.0459C44.4262 12.7744 44.8164 12.6387 45.2873 12.6387C45.7583 12.6387 46.1417 12.7744 46.4378 13.0459C46.7471 13.3045 46.9018 13.6406 46.9018 14.0543C46.9018 14.4681 46.7471 14.8107 46.4378 15.0822C46.1417 15.3537 45.7583 15.4894 45.2873 15.4894ZM43.9957 26.6013V16.9826H46.579V26.6013H43.9957Z" fill="#0C122A"/>
<path d="M52.6251 26.6022C51.5757 26.6022 50.7348 26.3567 50.1026 25.8654C49.4702 25.3742 49.1539 24.5014 49.1539 23.2473V19.0586H47.4385V16.9835H49.1539L49.4567 14.4043H51.7372V16.9835H54.4414V19.0586H51.7372V23.2668C51.7372 23.7321 51.8381 24.0553 52.0399 24.2364C52.2552 24.4045 52.6184 24.4886 53.1297 24.4886H54.381V26.6022H52.6251Z" fill="#0C122A"/>
<path d="M60.0959 26.8343C59.1271 26.8343 58.2527 26.6208 57.4722 26.1942C56.7054 25.7675 56.0932 25.1794 55.6357 24.4296C55.1917 23.6667 54.9697 22.7876 54.9697 21.792C54.9697 20.7967 55.1985 19.9239 55.6559 19.1741C56.1134 18.4113 56.7256 17.8165 57.4924 17.3899C58.2727 16.9634 59.1473 16.75 60.116 16.75C61.0713 16.75 61.9324 16.9634 62.6993 17.3899C63.4796 17.8165 64.0917 18.4113 64.5358 19.1741C64.9932 19.9239 65.222 20.7967 65.222 21.792C65.222 22.7876 64.9932 23.6667 64.5358 24.4296C64.0917 25.1794 63.4796 25.7675 62.6993 26.1942C61.919 26.6208 61.0511 26.8343 60.0959 26.8343ZM60.0959 24.6816C60.7685 24.6816 61.3539 24.4424 61.8516 23.964C62.3495 23.4728 62.5983 22.7488 62.5983 21.792C62.5983 20.8354 62.3495 20.1179 61.8516 19.6395C61.3539 19.1483 60.7753 18.9025 60.116 18.9025C59.4299 18.9025 58.8379 19.1483 58.3401 19.6395C57.8557 20.1179 57.6136 20.8354 57.6136 21.792C57.6136 22.7488 57.8557 23.4728 58.3401 23.964C58.8379 24.4424 59.4232 24.6816 60.0959 24.6816Z" fill="#0C122A"/>
<path d="M76.3102 26.7978C75.5366 26.7978 74.8358 26.6686 74.208 26.4101C73.5801 26.1407 73.0756 25.7313 72.6945 25.1819C72.3131 24.6324 72.1113 23.9429 72.0889 23.1134H74.208C74.2192 23.6628 74.4042 24.1261 74.7629 24.5031C75.133 24.8695 75.6487 25.0525 76.3102 25.0525C76.9381 25.0525 77.4203 24.8855 77.7565 24.5516C78.0928 24.2175 78.261 23.7975 78.261 23.2911C78.261 22.6984 78.0369 22.2514 77.5884 21.9498C77.1511 21.6374 76.585 21.481 75.8898 21.481H75.0152V19.7842H75.9066C76.4784 19.7842 76.9549 19.655 77.3361 19.3964C77.7173 19.1379 77.9079 18.7554 77.9079 18.2489C77.9079 17.8288 77.7622 17.4947 77.4706 17.2469C77.1904 16.9884 76.798 16.8592 76.2934 16.8592C75.7441 16.8592 75.3124 17.0154 74.9984 17.3278C74.6957 17.6403 74.5276 18.0228 74.4939 18.4751H72.3917C72.4365 17.4301 72.8121 16.6059 73.5185 16.0026C74.236 15.3993 75.1611 15.0977 76.2934 15.0977C77.1006 15.0977 77.779 15.2377 78.3283 15.5178C78.8889 15.7872 79.3093 16.1481 79.5897 16.6006C79.8812 17.0531 80.027 17.554 80.027 18.1035C80.027 18.7392 79.842 19.2778 79.472 19.7196C79.1131 20.1506 78.6648 20.4414 78.1265 20.5922C78.788 20.7215 79.3261 21.0339 79.741 21.5295C80.1558 22.0144 80.3633 22.6285 80.3633 23.3719C80.3633 23.9967 80.2063 24.5677 79.8925 25.0848C79.5785 25.6021 79.1187 26.0168 78.5133 26.3292C77.9191 26.6416 77.1848 26.7978 76.3102 26.7978Z" fill="#0C122A"/>
<path d="M85.976 26.7978C85.0902 26.7978 84.3447 26.6416 83.7393 26.3292C83.1338 26.0168 82.6461 25.5966 82.2761 25.0687C81.9061 24.5408 81.637 23.9537 81.4689 23.3072C81.3118 22.6608 81.2334 21.9983 81.2334 21.3195C81.2334 20.059 81.4184 18.9654 81.7883 18.0389C82.1583 17.1015 82.691 16.3797 83.386 15.8734C84.0812 15.3562 84.9221 15.0977 85.9087 15.0977C86.7159 15.0977 87.3999 15.2539 87.9605 15.5663C88.5322 15.868 88.9751 16.2667 89.2891 16.7621C89.603 17.2577 89.788 17.7911 89.8441 18.362H87.8428C87.7418 17.8664 87.5232 17.484 87.1869 17.2146C86.8506 16.9453 86.4189 16.8106 85.8919 16.8106C85.1407 16.8106 84.5353 17.1447 84.0756 17.8126C83.6158 18.4698 83.3692 19.4771 83.3357 20.8347C83.6046 20.3929 84.0082 20.0267 84.5465 19.7357C85.0846 19.4448 85.6844 19.2994 86.346 19.2994C86.9963 19.2994 87.6073 19.4503 88.1791 19.7519C88.7509 20.0535 89.2106 20.479 89.5581 21.0286C89.917 21.5781 90.0964 22.2244 90.0964 22.9678C90.0964 23.6466 89.9226 24.2768 89.5749 24.8587C89.2386 25.4404 88.7565 25.909 88.1286 26.2646C87.512 26.6201 86.7945 26.7978 85.976 26.7978ZM85.8582 25.0202C86.4861 25.0202 87.0019 24.837 87.4055 24.4708C87.8204 24.0936 88.0278 23.6197 88.0278 23.0486C88.0278 22.4453 87.8204 21.9605 87.4055 21.5941C86.9907 21.2279 86.4636 21.0447 85.8247 21.0447C85.4099 21.0447 85.0341 21.1363 84.6978 21.3195C84.3728 21.4918 84.1148 21.7288 83.9243 22.0306C83.7337 22.3214 83.6383 22.6501 83.6383 23.0163C83.6383 23.598 83.8457 24.0775 84.2606 24.4545C84.6866 24.8317 85.2193 25.0202 85.8582 25.0202Z" fill="#0C122A"/>
<path d="M95.1794 26.7973C94.316 26.7973 93.5705 26.6518 92.9426 26.361C92.326 26.0701 91.8382 25.6714 91.4795 25.1651C91.1319 24.6479 90.9301 24.0662 90.874 23.4197H92.9763C93.0771 23.883 93.3238 24.2709 93.7162 24.5833C94.1086 24.885 94.5964 25.0359 95.1794 25.0359C95.8072 25.0359 96.3175 24.8149 96.7099 24.3733C97.1135 23.9315 97.3153 23.3821 97.3153 22.7249C97.3153 22.0461 97.1135 21.5074 96.7099 21.1087C96.3175 20.7102 95.8185 20.5109 95.213 20.5109C94.7086 20.5109 94.2713 20.6294 93.9012 20.8664C93.5312 21.1034 93.2677 21.3998 93.1108 21.7552H91.0422L92.0512 15.291H98.5766V17.1009H93.6659L93.1276 19.719C93.3743 19.4605 93.7106 19.2503 94.1367 19.0888C94.5627 18.9163 95.0393 18.8302 95.5662 18.8302C96.4071 18.8302 97.1079 19.0134 97.6684 19.3796C98.229 19.7351 98.655 20.2091 98.9466 20.8018C99.2382 21.3835 99.3839 22.0192 99.3839 22.7086C99.3839 23.4953 99.2045 24.1954 98.8456 24.8096C98.4981 25.4236 98.0047 25.9084 97.3658 26.2641C96.7379 26.6195 96.009 26.7973 95.1794 26.7973Z" fill="#0C122A"/>
<path d="M69.0646 40.0356L65.3689 29.1278C65.3173 28.9631 65.3134 28.7878 65.3578 28.6211C65.4024 28.4545 65.4934 28.303 65.621 28.1836C65.7486 28.064 65.9076 27.9811 66.0808 27.944C66.2537 27.9067 66.4341 27.9168 66.6016 27.9729L77.8225 31.671C78.0312 31.7388 78.2096 31.8741 78.3279 32.0544C78.4463 32.2347 78.4973 32.449 78.4725 32.6614C78.4478 32.8738 78.3487 33.0717 78.1918 33.2216C78.035 33.3717 77.8298 33.4647 77.6107 33.4854L72.283 34.0035C72.0665 34.0236 71.8122 34.1225 71.6556 34.2692C71.499 34.4159 71.2868 35.1164 71.2583 35.3259L70.9325 39.9019C70.897 40.1086 70.7908 40.2979 70.6312 40.4392C70.4717 40.5804 70.268 40.6656 70.0527 40.681C69.8374 40.6964 69.6229 40.6412 69.4437 40.5242C69.2647 40.4072 69.1312 40.2352 69.0646 40.0356Z" fill="#6948EB"/>
<path d="M105.477 16.8436C106.323 16.6629 107.163 17.1993 107.286 18.0581C107.862 22.067 107.243 26.1663 105.486 29.8549C103.503 34.0179 100.18 37.4283 96.0282 39.5623C91.8758 41.6966 87.1234 42.4364 82.5005 41.6684C78.4103 40.989 74.6215 39.1627 71.5846 36.4266C70.9325 35.8391 70.9699 34.8235 71.6172 34.2305C72.2437 33.6565 73.2087 33.6951 73.8452 34.258C76.4132 36.5298 79.5963 38.0473 83.0283 38.6174C86.9695 39.272 91.0211 38.6412 94.5609 36.822C98.1008 35.0025 100.934 32.0954 102.624 28.5462C104.084 25.4809 104.622 22.0831 104.194 18.7481C104.082 17.876 104.619 17.0266 105.477 16.8436Z" fill="#6B4BEB"/>
<path d="M105.916 20.9839C106.789 20.9839 107.502 20.2739 107.435 19.4021C107.105 15.1263 105.444 11.0377 102.656 7.69913C99.527 3.95073 95.1703 1.37836 90.3256 0.418374C85.481 -0.541616 80.4465 0.169871 76.0763 2.43215C72.1878 4.44495 69.0384 7.5751 67.0382 11.3837C66.6285 12.1637 67.0143 13.1056 67.8272 13.4415C68.6215 13.7697 69.5252 13.3945 69.9333 12.6367C71.6422 9.46351 74.2925 6.85548 77.5518 5.16835C81.2775 3.23972 85.5694 2.63317 89.6995 3.45157C93.8296 4.26997 97.5437 6.46294 100.212 9.65848C102.537 12.4441 103.943 15.842 104.266 19.4028C104.345 20.2736 105.044 20.9839 105.916 20.9839Z" fill="url(#paint0_linear_15301_67)"/>
<defs>
<linearGradient id="paint0_linear_15301_67" x1="102.877" y1="12.1069" x2="70.1768" y2="16.906" gradientUnits="userSpaceOnUse">
<stop stop-color="#6B4BEB"/>
<stop offset="0.300236" stop-color="#6B4BEB" stop-opacity="0.668642"/>
<stop offset="0.550052" stop-color="#6B4BEB" stop-opacity="0.449948"/>
<stop offset="1" stop-color="#6B4BEB" stop-opacity="0"/>
</linearGradient>
</defs>
</svg>
