<svg width="95" height="16" viewBox="0 0 95 16" xmlns="http://www.w3.org/2000/svg">
  <path
    fill="#1CC995"
    fill-rule="evenodd"
    clip-rule="evenodd"
    d="M18.3896 9.50718L18.3253 10.0645C18.1867 11.2662 17.7593 12.3103 17.0336 13.178C16.3112 14.0417 15.3402 14.6874 14.1438 15.1266C12.9464 15.5661 11.5423 15.7786 9.94289 15.7786C8.60465 15.7786 7.3663 15.6242 6.23115 15.3105L6.2295 15.3101C5.10466 14.9951 4.11716 14.519 3.27514 13.876L3.27163 13.8733C2.43911 13.2258 1.79033 12.4222 1.32852 11.4678L1.32716 11.465C0.860766 10.4856 0.635742 9.35947 0.635742 8.10004C0.635742 6.8406 0.860766 5.71452 1.32717 4.73507C1.78845 3.76638 2.43719 2.95449 3.27113 2.30574C4.11328 1.64745 5.10143 1.16325 6.22736 0.847723C7.36388 0.518972 8.60356 0.357178 9.94289 0.357178C11.5435 0.357178 12.9491 0.577136 14.1479 1.0322C15.357 1.48577 16.3345 2.14568 17.0564 3.02379C17.7837 3.89405 18.2029 4.94779 18.3261 6.16395L18.3818 6.71432H14.6314L14.5224 6.36216C14.361 5.84084 14.0907 5.39973 13.7095 5.03077L13.7036 5.02506L13.6979 5.01917C13.3341 4.64331 12.8503 4.3462 12.2276 4.13866C11.6057 3.93136 10.8474 3.82146 9.94289 3.82146C8.82365 3.82146 7.86315 3.99893 7.05053 4.3397L7.04417 4.34237C6.24028 4.66652 5.63765 5.14314 5.21349 5.7669L5.21084 5.7708C4.79512 6.36993 4.57146 7.13595 4.57146 8.10004C4.57146 9.0482 4.79434 9.80762 5.21082 10.4079C5.63503 11.0192 6.23946 11.4982 7.0473 11.8376C7.86112 12.1652 8.82289 12.3358 9.94289 12.3358C10.8479 12.3358 11.5976 12.2257 12.2032 12.0196L12.2062 12.0185C12.8323 11.8098 13.3181 11.5177 13.6822 11.1536L13.688 11.1478C14.0759 10.7724 14.3543 10.3386 14.5281 9.842L14.6453 9.50718H18.3896ZM21.6093 15.5V0.635749H31.5164C32.6307 0.635749 33.6207 0.791232 34.4754 1.1167C35.3586 1.43312 36.0661 1.94777 36.5735 2.66684C37.0921 3.38724 37.3307 4.29009 37.3307 5.33575C37.3307 6.04905 37.2068 6.68727 36.9351 7.23078C36.67 7.7609 36.2941 8.19666 35.8108 8.53073C35.6512 8.64457 35.4832 8.74869 35.3074 8.84327C35.7593 9.02321 36.1391 9.28692 36.425 9.64776C36.8573 10.1603 37.0307 10.8735 37.0307 11.7V15.5H33.1807V11.8929C33.1807 11.4118 33.0943 11.1153 32.9829 10.944L32.9769 10.9347C32.8856 10.7872 32.6912 10.6334 32.2805 10.5367L32.2772 10.536C31.8642 10.4358 31.2258 10.3786 30.3379 10.3786H25.4593V15.5H21.6093ZM33.0034 6.69982C33.3113 6.42265 33.4807 6.04448 33.4807 5.50718C33.4807 5.0053 33.3176 4.68596 33.0336 4.46827L33.0271 4.46326C32.7365 4.23274 32.2588 4.07861 31.5164 4.07861H25.4593V7.15004H31.5164C32.2423 7.15004 32.7076 6.97506 32.9972 6.70552L33.0034 6.69982ZM55.3558 12.1215V15.5H40.813V0.635749H55.3344V4.01432H44.663V6.46432H53.4058V9.71432H44.663V12.1215H55.3558ZM58.482 0.635749H74.3749V3.7545L63.9252 12.1215H74.3749V15.5H58.482V12.3813L68.9317 4.01432H58.482V0.635749ZM90.6096 0.635749H94.4596V9.17146C94.4596 10.1323 94.3174 10.9956 94.0191 11.7511C93.7383 12.4985 93.3285 13.1399 92.7864 13.666C92.257 14.1798 91.6372 14.597 90.9316 14.9192L90.927 14.9213C90.2418 15.2258 89.4938 15.444 88.6856 15.5788C87.8985 15.7124 87.0705 15.7786 86.2025 15.7786C85.3065 15.7786 84.4508 15.7125 83.636 15.5792C82.8139 15.4447 82.0521 15.2268 81.3531 14.9229L81.341 14.9176C80.6487 14.5945 80.0427 14.1759 79.5275 13.6607C79.0029 13.1361 78.5958 12.498 78.3019 11.7555L78.2985 11.7471C78.0158 10.9932 77.8811 10.1314 77.8811 9.17146V0.635749H81.7311V8.87146C81.7311 9.90024 81.9354 10.6042 82.272 11.0546C82.6279 11.5163 83.1168 11.8446 83.7643 12.0324C84.4705 12.2183 85.2817 12.3143 86.2025 12.3143C87.0948 12.3143 87.8766 12.2183 88.5529 12.033C89.2025 11.845 89.6926 11.5157 90.049 11.0523L90.0501 11.0509C90.3985 10.6014 90.6096 9.89005 90.6096 8.87146V0.635749Z"
  />
</svg>