<?xml version="1.0" encoding="UTF-8"?>
<svg xmlns="http://www.w3.org/2000/svg" xmlns:xlink="http://www.w3.org/1999/xlink" width="100" height="30" viewBox="0 0 100 30">
  <defs>
    <path id="hr44fsilta" d="M0.172 0.143L90.216 0.143 90.216 12.949 0.172 12.949z"></path>
  </defs>
  <g fill="none" fill-rule="evenodd">
    <g>
      <g>
        <g transform="translate(-19 -16) translate(19 16) translate(8.584 8.328)">
          <mask id="fld1lagy2b" fill="#fff">
            <use xlink:href="#hr44fsilta"></use>
          </mask>
          <path fill="#2b2e42" d="M79.543 6.531c0 2.225 1.774 3.936 3.892 3.936 2.117 0 3.834-1.74 3.834-3.936 0-2.224-1.717-3.907-3.834-3.907-2.118 0-3.892 1.683-3.892 3.907zm10.673 0c0 3.651-2.918 6.418-6.781 6.418-3.863 0-6.782-2.767-6.782-6.418 0-3.679 2.92-6.388 6.782-6.388 3.834 0 6.781 2.738 6.781 6.388zM60.573.228l3.691 7.701 3.662-7.7h3.177v12.606h-2.575v-8.5l-3.348 7.216h-1.86l-3.348-7.216v8.5h-2.575V.228h3.176zm-8.87 0V2.14l-7.038 8.328h7.153l-.029 2.368H40.802v-1.94l7.067-8.3H41.03V.228h10.673zm-25.322 0l6.152 8.1v-8.1h2.718v12.607h-2.604l-6.123-8.072v8.072h-2.718V.228h2.575zM14.535 12.835h2.862V.228h-2.862v12.607zM9.242.228l-.029 2.367h-6.18v3.11h5.694v2.367H3.033v4.763H.172V.228h9.07z" mask="url(#fld1lagy2b)"></path>
        </g>
        <path fill="#FFC809" d="M23.09 0L2.89 0 0.029 0 0 0 0 2.852 0.029 2.852 0.029 26.867 0 26.867 0 29.719 0.029 29.719 2.89 29.719 23.09 29.719 25.952 29.719 25.952 26.867 25.952 24.015 23.09 24.015 23.09 26.867 2.89 26.867 2.89 2.852 23.09 2.852 23.09 5.704 25.952 5.704 25.952 2.852 25.952 0z" transform="translate(-19 -16) translate(19 16)"></path>
      </g>
    </g>
  </g>
</svg>
