<?xml version="1.0" encoding="UTF-8" standalone="no"?>
<!-- Created with Inkscape (http://www.inkscape.org/) -->

<svg
   version="1.1"
   id="svg824"
   xml:space="preserve"
   width="1126.644"
   height="503.08533"
   viewBox="0 0 1126.644 503.08533"
   sodipodi:docname="logo.svg"
   inkscape:version="1.1 (c4e8f9e, 2021-05-24)"
   xmlns:inkscape="http://www.inkscape.org/namespaces/inkscape"
   xmlns:sodipodi="http://sodipodi.sourceforge.net/DTD/sodipodi-0.dtd"
   xmlns="http://www.w3.org/2000/svg"
   xmlns:svg="http://www.w3.org/2000/svg"><defs
     id="defs828"><clipPath
       clipPathUnits="userSpaceOnUse"
       id="clipPath838"><path
         d="M 0,377.314 H 844.983 V 0 H 0 Z"
         id="path836" /></clipPath></defs><sodipodi:namedview
     id="namedview826"
     pagecolor="#ffffff"
     bordercolor="#666666"
     borderopacity="1.0"
     inkscape:pageshadow="2"
     inkscape:pageopacity="0.0"
     inkscape:pagecheckerboard="0"
     showgrid="false"
     inkscape:zoom="0.45663083"
     inkscape:cx="664.6507"
     inkscape:cy="480.69466"
     inkscape:window-width="2560"
     inkscape:window-height="1387"
     inkscape:window-x="0"
     inkscape:window-y="25"
     inkscape:window-maximized="1"
     inkscape:current-layer="g832" /><g
     id="g830"
     inkscape:groupmode="layer"
     inkscape:label="Copia de alvos-editable"
     transform="matrix(1.3333333,0,0,-1.3333333,0,503.08533)"><g
       id="g832"><g
         id="g834"
         clip-path="url(#clipPath838)"><g
           id="g840"
           transform="translate(166.5109,115.153)"><path
             d="m 0,0 c 6.439,3.687 11.524,8.77 15.258,15.258 3.73,6.482 5.597,13.786 5.597,21.902 0,8.12 -1.867,15.467 -5.597,22.045 C 11.524,65.783 6.439,70.939 0,74.672 c -6.439,3.73 -13.53,5.599 -21.275,5.599 -7.652,0 -14.649,-1.869 -20.994,-5.599 -6.346,-3.733 -11.336,-8.889 -14.976,-15.467 -3.638,-6.578 -5.458,-13.925 -5.458,-22.045 0,-8.116 1.82,-15.443 5.458,-21.972 3.64,-6.534 8.607,-11.618 14.906,-15.258 6.299,-3.637 13.319,-5.457 21.064,-5.457 7.745,0 14.836,1.84 21.275,5.527 M 23.374,114.659 H 54.447 V -35.9 H 23.235 l -2.52,17.214 C 15.116,-25.122 8.538,-30.185 0.981,-33.871 c -7.559,-3.684 -16.004,-5.528 -25.334,-5.528 -13.251,0 -25.545,3.429 -36.881,10.286 -11.336,6.859 -20.32,16.143 -26.942,27.853 -6.627,11.711 -9.94,24.565 -9.94,38.562 0,13.995 3.336,26.849 10.01,38.56 6.668,11.708 15.649,20.994 26.942,27.853 11.289,6.857 23.56,10.288 36.811,10.288 9.516,0 18.077,-1.869 25.683,-5.6 7.605,-3.733 14.206,-8.865 19.806,-15.397 z"
             style="fill:#fc5a1a;fill-opacity:1;fill-rule:nonzero;stroke:none"
             id="path842" /></g><path
           d="m 295.136,79.253 h -35.549 v 209.666 h 35.549 z"
           style="fill:#fc5a1a;fill-opacity:1;fill-rule:nonzero;stroke:none"
           id="path844" /><g
           id="g846"
           transform="translate(409.4561,79.2526)"><path
             d="m 0,0 h -34.85 l -59.486,150.698 h 39.189 L -17.356,40.449 20.436,150.698 h 39.329 z"
             style="fill:#fc5a1a;fill-opacity:1;fill-rule:nonzero;stroke:none"
             id="path848" /></g><g
           id="g850"
           transform="translate(584.2127,117.7016)"><path
             d="m 0,0 c 6.209,3.673 11.128,8.725 14.758,15.164 3.625,6.437 5.438,13.554 5.438,21.353 0,7.887 -1.813,15.049 -5.438,21.488 -3.63,6.437 -8.569,11.514 -14.826,15.232 -6.256,3.717 -13.102,5.576 -20.535,5.576 -7.528,0 -14.396,-1.859 -20.605,-5.576 -6.211,-3.718 -11.13,-8.795 -14.755,-15.232 -3.627,-6.439 -5.441,-13.601 -5.441,-21.488 0,-7.89 1.814,-15.029 5.441,-21.421 3.625,-6.391 8.544,-11.423 14.755,-15.096 6.209,-3.673 13.077,-5.509 20.605,-5.509 7.523,0 14.392,1.836 20.603,5.509 m -58.753,-28.151 c -11.471,6.663 -20.534,15.684 -27.2,27.062 -6.662,11.379 -9.996,23.869 -9.996,37.47 0,13.689 3.334,26.292 9.996,37.809 6.666,11.512 15.754,20.603 27.268,27.268 11.514,6.663 24.21,9.996 38.082,9.996 13.873,0 26.563,-3.356 38.08,-10.064 C 28.989,94.677 38.08,85.589 44.745,74.12 51.41,62.651 54.741,50.07 54.741,36.381 54.741,22.78 51.41,10.267 44.745,-1.156 38.08,-12.58 28.969,-21.604 17.409,-28.221 c -11.562,-6.615 -24.323,-9.926 -38.285,-9.926 -13.782,0 -26.408,3.331 -37.877,9.996"
             style="fill:#fc5a1a;fill-opacity:1;fill-rule:nonzero;stroke:none"
             id="path852" /></g><g
           id="g854"
           transform="translate(770.2186,145.5896)"><path
             d="m 0,0 c -4.247,5.925 -10.056,10.729 -17.426,14.416 -7.371,3.687 -16.422,6.88 -27.151,9.588 -7.838,2.053 -13.905,3.94 -18.196,5.669 -4.293,1.725 -7.35,3.568 -9.167,5.528 -1.82,1.959 -2.732,4.29 -2.732,6.999 0,3.919 1.797,6.998 5.391,9.237 3.591,2.241 8.886,3.358 15.885,3.358 6.438,0 13.318,-1.213 20.645,-3.637 7.324,-2.429 13.551,-5.318 18.686,-8.68 L 3.01,68.094 c -7.838,5.69 -16.68,10.145 -26.524,13.365 -5.134,1.678 -10.17,2.909 -15.113,3.713 v 9.616 H -72.645 V 84.057 c -3.851,-0.913 -7.467,-2.103 -10.843,-3.577 -8.865,-3.872 -15.629,-9.097 -20.294,-15.675 -4.668,-6.579 -6.999,-13.928 -6.999,-22.045 0,-11.571 4.36,-21.066 13.086,-28.483 8.724,-7.418 20.364,-12.947 34.922,-16.585 8.303,-2.055 14.788,-4.014 19.455,-5.881 4.666,-1.867 8.068,-3.872 10.216,-6.018 2.145,-2.148 3.219,-4.758 3.219,-7.838 0,-4.572 -2.075,-8.116 -6.226,-10.636 -4.154,-2.52 -9.777,-3.78 -16.866,-3.78 -8.213,0 -16.634,1.562 -25.264,4.689 -8.633,3.126 -16.12,6.929 -22.466,11.408 l -16.936,-25.194 c 9.052,-6.906 19.128,-12.317 30.234,-16.236 4.779,-1.687 9.706,-2.988 14.762,-3.949 v -9.729 h 34.018 v 8.797 c 6.155,0.956 11.876,2.595 17.143,4.95 8.865,3.966 15.722,9.423 20.575,16.376 4.851,6.95 7.278,14.767 7.278,23.444 C 6.369,-13.226 4.247,-5.927 0,0"
             style="fill:#fc5a1a;fill-opacity:1;fill-rule:nonzero;stroke:none"
             id="path856" /></g><g
           id="g858"
           transform="translate(669.1545,254.9573)"><path
             d="m 0,0 c -48.51,69.652 -162.583,69.652 -211.093,0 -6.856,-9.844 9.259,-19.152 16.06,-9.388 40.224,57.757 138.749,57.757 178.973,0 C -9.267,-19.141 6.863,-9.854 0,0"
             style="fill:#ff9900;fill-opacity:1;fill-rule:nonzero;stroke:none"
             id="path860" /></g><g
           id="g862"
           transform="translate(489.6819,235.8316)"><path
             d="m 0,0 c -3.147,-3.962 -3.796,-9.272 0,-13.152 3.206,-3.276 10.034,-3.925 13.151,0 28.614,36.023 92.9,36.023 121.514,0 3.148,-3.964 9.852,-3.228 13.151,0 3.928,3.843 3.107,9.241 0,13.152 C 113.431,43.289 34.385,43.289 0,0"
             style="fill:#ff9900;fill-opacity:1;fill-rule:nonzero;stroke:none"
             id="path864" /></g></g></g></g></svg>
