<?xml version="1.0" encoding="UTF-8"?> <svg xmlns="http://www.w3.org/2000/svg" width="837" height="83" viewBox="0 0 837 83" fill="none"><path d="M33 47H55.5L88.3 82.5H65.2L33 47ZM45 78.6C36.2 78.6 28.4667 76.9667 21.8 73.7C15.2 70.4333 10.0667 65.8667 6.4 60C2.73333 54.1333 0.9 47.3 0.9 39.5C0.9 31.7 2.73333 24.8667 6.4 19C10.0667 13.1333 15.2 8.56666 21.8 5.3C28.4667 2.03333 36.2 0.399997 45 0.399997C53.8 0.399997 61.5 2.03333 68.1 5.3C74.7667 8.56666 79.9333 13.1333 83.6 19C87.3333 24.8667 89.2 31.7 89.2 39.5C89.2 47.3 87.3333 54.1333 83.6 60C79.9333 65.8667 74.7667 70.4333 68.1 73.7C61.5 76.9667 53.8 78.6 45 78.6ZM45 61.7C50.2 61.7 54.6667 60.8333 58.4 59.1C62.1333 57.3 65 54.7333 67 51.4C69.0667 48.0667 70.1 44.1 70.1 39.5C70.1 34.9 69.0667 30.9333 67 27.6C65 24.2667 62.1333 21.7333 58.4 20C54.6667 18.2 50.2 17.3 45 17.3C39.8667 17.3 35.4333 18.2 31.7 20C27.9667 21.7333 25.0667 24.2667 23 27.6C20.9333 30.9333 19.9 34.9 19.9 39.5C19.9 44.1 20.9333 48.0667 23 51.4C25.0667 54.7333 27.9667 57.3 31.7 59.1C35.4333 60.8333 39.8667 61.7 45 61.7ZM118.294 43.8C118.294 47.4667 118.994 50.6667 120.394 53.4C121.86 56.0667 123.96 58.1333 126.694 59.6C129.427 61 132.794 61.7 136.794 61.7C140.86 61.7 144.26 61 146.994 59.6C149.727 58.1333 151.794 56.0667 153.194 53.4C154.594 50.6667 155.294 47.4667 155.294 43.8V1.99999H174.094V44.7C174.094 51.5 172.527 57.4333 169.394 62.5C166.327 67.5667 161.994 71.5333 156.394 74.4C150.794 77.2 144.26 78.6 136.794 78.6C129.327 78.6 122.794 77.2 117.194 74.4C111.594 71.5333 107.227 67.5667 104.094 62.5C100.96 57.4333 99.3938 51.5 99.3938 44.7V1.99999H118.294V43.8ZM187.796 1.99999H206.696V77H187.796V1.99999ZM303.592 46C302.859 52.4667 300.626 58.1667 296.892 63.1C293.159 67.9667 288.226 71.7667 282.092 74.5C275.959 77.2333 268.959 78.6 261.092 78.6C252.492 78.6 244.926 76.9667 238.392 73.7C231.926 70.4333 226.892 65.8667 223.292 60C219.692 54.1333 217.892 47.3 217.892 39.5C217.892 31.7 219.692 24.8667 223.292 19C226.892 13.1333 231.926 8.56666 238.392 5.3C244.926 2.03333 252.492 0.399997 261.092 0.399997C268.959 0.399997 275.959 1.76666 282.092 4.5C288.226 7.23333 293.159 11.0333 296.892 15.9C300.626 20.7667 302.859 26.4667 303.592 33H284.592C283.926 29.6 282.559 26.7 280.492 24.3C278.492 21.9 275.826 20.0667 272.492 18.8C269.226 17.4667 265.426 16.8 261.092 16.8C256.092 16.8 251.792 17.7333 248.192 19.6C244.592 21.4 241.826 24 239.892 27.4C237.959 30.8 236.992 34.8333 236.992 39.5C236.992 44.1667 237.959 48.2 239.892 51.6C241.826 55 244.592 57.6333 248.192 59.5C251.792 61.3 256.092 62.2 261.092 62.2C265.426 62.2 269.226 61.5667 272.492 60.3C275.826 59.0333 278.492 57.2 280.492 54.8C282.559 52.4 283.926 49.4667 284.592 46H303.592ZM314.163 77V1.99999H332.963V61.9L327.863 58L372.263 1.99999H392.263L331.163 77H314.163ZM350.063 40.7L363.663 29L393.263 77H371.863L350.063 40.7Z" fill="#FFC400"></path><path d="M437.936 1.99999V71.1L432.036 65.4H488.536V77H424.736V1.99999H437.936ZM533.17 78.4C524.636 78.4 517.136 76.7667 510.67 73.5C504.203 70.2333 499.17 65.7 495.57 59.9C491.97 54.0333 490.17 47.2333 490.17 39.5C490.17 31.7667 491.97 25 495.57 19.2C499.17 13.3333 504.203 8.76666 510.67 5.5C517.136 2.23333 524.636 0.599994 533.17 0.599994C541.703 0.599994 549.203 2.23333 555.67 5.5C562.136 8.76666 567.17 13.3333 570.77 19.2C574.37 25 576.17 31.7667 576.17 39.5C576.17 47.2333 574.37 54.0333 570.77 59.9C567.17 65.7 562.136 70.2333 555.67 73.5C549.203 76.7667 541.703 78.4 533.17 78.4ZM533.17 66.6C539.236 66.6 544.47 65.5 548.87 63.3C553.27 61.1 556.67 57.9667 559.07 53.9C561.536 49.8333 562.77 45.0333 562.77 39.5C562.77 33.9667 561.536 29.1667 559.07 25.1C556.67 21.0333 553.27 17.9 548.87 15.7C544.47 13.5 539.236 12.4 533.17 12.4C527.17 12.4 521.936 13.5 517.47 15.7C513.07 17.9 509.636 21.0333 507.17 25.1C504.77 29.1667 503.57 33.9667 503.57 39.5C503.57 45.0333 504.77 49.8333 507.17 53.9C509.636 57.9667 513.07 61.1 517.47 63.3C521.936 65.5 527.17 66.6 533.17 66.6ZM594.892 59.8V48.9H647.292V59.8H594.892ZM629.692 1.99999L665.692 77H651.592L618.892 7H623.992L591.292 77H577.192L613.192 1.99999H629.692ZM744.334 69L738.934 69.6V1.99999H751.734V77H734.934L682.334 9.39999L687.634 8.8V77H674.834V1.99999H692.034L744.334 69ZM763.886 52.6H777.286C777.686 55.6 778.919 58.2333 780.986 60.5C783.119 62.7667 785.919 64.5333 789.386 65.8C792.853 67 796.853 67.6 801.386 67.6C808.119 67.6 813.453 66.5667 817.386 64.5C821.319 62.3667 823.286 59.5 823.286 55.9C823.286 52.9667 822.153 50.7667 819.886 49.3C817.619 47.8333 813.519 46.7333 807.586 46L791.386 43.9C782.319 42.7 775.719 40.4667 771.586 37.2C767.519 33.8667 765.486 29.1667 765.486 23.1C765.486 18.5 766.853 14.5333 769.586 11.2C772.386 7.79999 776.319 5.19999 781.386 3.39999C786.453 1.53333 792.386 0.599994 799.186 0.599994C805.919 0.599994 811.886 1.6 817.086 3.6C822.286 5.6 826.419 8.4 829.486 12C832.619 15.5333 834.319 19.7 834.586 24.5H821.186C820.853 21.8333 819.719 19.5333 817.786 17.6C815.919 15.6667 813.386 14.1667 810.186 13.1C806.986 11.9667 803.219 11.4 798.886 11.4C792.753 11.4 787.853 12.4 784.186 14.4C780.519 16.4 778.686 19.1333 778.686 22.6C778.686 25.2667 779.753 27.3333 781.886 28.8C784.086 30.2 787.886 31.2667 793.286 32L809.686 34.3C816.419 35.2333 821.719 36.5 825.586 38.1C829.519 39.6333 832.319 41.7333 833.986 44.4C835.653 47 836.486 50.3667 836.486 54.5C836.486 59.3 835.019 63.5 832.086 67.1C829.153 70.7 825.019 73.5 819.686 75.5C814.419 77.4333 808.253 78.4 801.186 78.4C793.986 78.4 787.619 77.3333 782.086 75.2C776.619 73 772.286 69.9667 769.086 66.1C765.886 62.2333 764.153 57.7333 763.886 52.6Z" fill="#282E3A"></path></svg> 