<svg width="180" height="37" viewBox="0 0 180 37" fill="none" xmlns="http://www.w3.org/2000/svg">
<path d="M77.3223 8.71827C76.3767 8.71827 75.5601 8.46039 74.8724 7.94462C74.1847 7.42885 73.8408 6.74115 73.8408 5.96749C73.8408 5.15086 74.1847 4.46316 74.8724 3.90441C75.5601 3.34565 76.3767 3.08777 77.3223 3.08777C78.3538 3.08777 79.2134 3.34565 79.9011 3.90441C80.5888 4.46316 80.8897 5.10787 80.8897 5.96749C80.8897 6.74115 80.5458 7.42885 79.9011 7.94462C79.2564 8.46039 78.3968 8.71827 77.3223 8.71827Z" fill="#EDBA89"/>
<path d="M69.3281 11.3403H55.5742V15.5954H69.3281V11.3403Z" fill="#002956"/>
<path d="M68.8983 23.9336H55.5742V28.1887H68.8983V23.9336Z" fill="#002956"/>
<path d="M58.9268 25.8676V9.27698C58.9268 7.81563 59.2706 6.5262 59.9153 5.45167C60.56 4.33417 61.4626 3.51753 62.6661 2.87281C63.8696 2.27108 65.245 1.97021 66.7923 1.97021C68.0817 1.97021 69.2422 2.14214 70.2307 2.443C71.2193 2.74387 72.2938 3.21666 73.4543 3.8184L71.5632 7.98755C70.7895 7.47178 70.1018 7.08495 69.5001 6.87004C68.8983 6.65514 68.2536 6.5262 67.523 6.5262C66.7923 6.5262 66.1905 6.65514 65.6748 6.95601C65.202 7.25687 64.8581 7.60072 64.6002 7.98755C64.3424 8.37438 64.2564 8.80419 64.2564 9.19102V25.9106H58.9268V25.8676Z" fill="#002956"/>
<path d="M78.9132 11.3403H71.6064V15.5954H78.9132V11.3403Z" fill="#002956"/>
<path d="M83.813 23.9336H71.6064V28.1887H83.813V23.9336Z" fill="#002956"/>
<path d="M80.4166 11.3403H74.958V26.7705H80.4166V11.3403Z" fill="#002956"/>
<path d="M84.8867 15.5956V11.3405H92.3654V15.5956H84.8867ZM84.8867 28.232V23.9339H96.4056V28.232H84.8867ZM88.2392 28.232V11.3405H93.6978V28.232H88.2392ZM102.079 28.232V19.249C102.079 18.7762 101.993 18.3893 101.864 17.9595C101.735 17.5727 101.52 17.2288 101.219 16.928C100.962 16.6271 100.618 16.4122 100.231 16.2403C99.8441 16.0684 99.3713 15.9824 98.8985 15.9824C98.3398 15.9824 97.738 16.1113 97.1793 16.3262C96.6205 16.5841 96.0188 16.928 95.46 17.4008C94.8583 17.8736 94.2996 18.4753 93.6978 19.206C93.0961 19.9366 92.4943 20.7533 91.8496 21.6989V17.4867C92.6663 16.3692 93.4829 15.3807 94.2136 14.564C94.9443 13.7474 95.6749 13.0597 96.3626 12.5009C97.0503 11.9422 97.781 11.5554 98.5547 11.2975C99.3283 11.0396 100.102 10.9106 100.962 10.9106C102.036 10.9106 102.982 11.0826 103.798 11.4264C104.615 11.7703 105.303 12.286 105.861 13.0167C106.42 13.7044 106.85 14.607 107.108 15.6385C107.409 16.6701 107.538 17.8736 107.538 19.2919V28.232H102.079ZM99.3283 28.232V23.9339H110.374V28.232H99.3283Z" fill="#002956"/>
<path d="M110.547 15.5954V11.3403H118.971V15.5954H110.547ZM110.547 36.0114V31.7563H122.496V36.0114H110.547ZM113.899 34.679V11.3403H119.229V34.679H113.899ZM124.602 28.7046C123.183 28.7046 121.937 28.4038 120.948 27.845C119.917 27.2863 119.057 26.5986 118.369 25.7819C117.682 24.9653 117.08 24.2776 116.564 23.6329V19.9365C117.08 20.6242 117.682 21.2689 118.412 21.9136C119.143 22.5584 119.917 23.1171 120.733 23.5469C121.55 23.9767 122.367 24.1916 123.226 24.1916C124 24.1916 124.645 24.0627 125.246 23.8478C125.848 23.6329 126.321 23.332 126.751 22.9452C127.138 22.5584 127.481 22.0856 127.696 21.5268C127.911 20.9681 128.04 20.3663 128.04 19.7216C128.04 18.905 127.868 18.1743 127.567 17.5296C127.266 16.8849 126.794 16.3691 126.149 16.0253C125.547 15.6384 124.817 15.4665 124 15.4665C123.183 15.4665 122.281 15.8104 121.292 16.541C120.347 17.2287 119.444 18.2173 118.584 19.5067C117.768 20.7532 117.08 22.2575 116.521 23.9338V20.0225C117.08 18.1743 117.854 16.541 118.842 15.1656C119.831 13.7902 120.948 12.7587 122.195 12.028C123.441 11.2974 124.645 10.9105 125.848 10.9105C127.223 10.9105 128.513 11.2974 129.716 12.071C130.92 12.8447 131.865 13.8762 132.596 15.2086C133.327 16.541 133.671 18.0883 133.671 19.8076C133.671 21.054 133.456 22.2575 133.026 23.332C132.596 24.4065 131.951 25.3521 131.135 26.1688C130.318 26.9854 129.373 27.5871 128.255 28.0599C127.138 28.4897 125.934 28.7046 124.602 28.7046Z" fill="#002956"/>
<path d="M134.573 15.5953V11.3402H142.095V15.5953H134.573ZM143.9 28.7045C142.869 28.7045 141.966 28.5326 141.192 28.1458C140.419 27.8019 139.731 27.2432 139.172 26.5555C138.613 25.8678 138.184 24.9652 137.926 23.8907C137.625 22.8161 137.496 21.6127 137.496 20.2373V11.3402H142.955V20.2803C142.955 20.753 142.998 21.1828 143.083 21.6127C143.169 21.9995 143.341 22.3863 143.556 22.6872C143.771 22.9881 144.072 23.2459 144.459 23.4179C144.846 23.5898 145.318 23.6757 145.92 23.6757C146.436 23.6757 146.952 23.5468 147.468 23.2889C148.026 23.031 148.542 22.6872 149.144 22.1714C149.703 21.6986 150.304 21.0539 150.906 20.3232C151.508 19.5926 152.152 18.7759 152.797 17.8303V22.0425C151.981 23.16 151.164 24.1485 150.433 24.9652C149.703 25.7818 148.972 26.4695 148.284 27.0283C147.596 27.587 146.866 27.9738 146.135 28.2747C145.447 28.5756 144.674 28.7045 143.9 28.7045ZM147.596 15.5953V11.3402H155.032V15.5953H147.596ZM155.204 28.4896C154.259 28.4896 153.399 28.3177 152.668 27.9309C151.938 27.544 151.336 26.9853 150.906 26.2116C150.476 25.438 150.261 24.5354 150.261 23.4608V11.3402H155.72V22.9881C155.72 23.3749 155.806 23.6328 155.978 23.8047C156.15 23.9766 156.365 24.0196 156.622 24.0196C156.794 24.0196 156.966 24.0196 157.138 23.9766C157.267 23.9336 157.396 23.8907 157.482 23.8907L158.557 27.716C158.256 27.8879 157.783 28.0598 157.181 28.2317C156.579 28.4037 155.892 28.4896 155.204 28.4896Z" fill="#002956"/>
<path d="M167.539 35.8394C165.992 35.8394 164.574 35.6675 163.327 35.2806C162.081 34.9368 161.092 34.378 160.362 33.6474C159.631 32.9167 159.287 32.0141 159.287 30.9396C159.287 30.2089 159.502 29.5642 159.889 29.0054C160.276 28.4037 160.748 27.8879 161.307 27.4581C161.866 26.9853 162.382 26.6415 162.898 26.2976L165.09 27.4581C164.832 27.5871 164.574 27.8879 164.316 28.3177C164.058 28.7475 163.886 29.2203 163.886 29.7791C163.886 30.1659 164.015 30.4668 164.316 30.7247C164.617 30.9825 165.09 31.1545 165.734 31.2834C166.379 31.4124 167.196 31.4553 168.227 31.4553C169.259 31.4553 170.204 31.3694 171.107 31.2404C172.009 31.1115 172.74 30.8966 173.299 30.6387C173.858 30.3808 174.159 30.0799 174.159 29.7361C174.159 29.3063 173.987 29.0054 173.643 28.8765C173.299 28.7046 172.783 28.6616 172.095 28.6616C171.666 28.6616 171.236 28.6616 170.763 28.7046C170.29 28.7475 169.774 28.7475 169.259 28.7905C168.7 28.8335 168.141 28.8335 167.496 28.8765C166.852 28.9195 166.121 28.9195 165.347 28.9195C164.445 28.9195 163.585 28.7475 162.769 28.4037C161.952 28.0598 161.264 27.5871 160.705 26.9423C160.147 26.2976 159.889 25.524 159.889 24.6214C159.889 23.7188 160.104 22.9881 160.577 22.3004C161.049 21.6557 161.608 21.0969 162.296 20.6241C162.983 20.1513 163.714 19.8075 164.445 19.5926L166.336 21.0539C166.035 21.1829 165.734 21.3978 165.476 21.6557C165.218 21.9136 164.961 22.1714 164.789 22.4723C164.617 22.7732 164.531 23.0311 164.531 23.3319C164.531 23.6758 164.617 23.9767 164.832 24.1486C165.047 24.3205 165.261 24.4494 165.562 24.5354C165.863 24.6214 166.121 24.6643 166.422 24.6643C167.024 24.6643 167.582 24.6643 168.098 24.6643C168.614 24.6643 169.13 24.6214 169.646 24.6214C170.161 24.6214 170.72 24.5784 171.279 24.5784C171.881 24.5784 172.525 24.5784 173.256 24.5784C174.416 24.5784 175.405 24.7503 176.265 25.1371C177.124 25.524 177.812 26.0397 178.328 26.7704C178.8 27.5011 179.058 28.4037 179.058 29.4782C179.058 30.4668 178.757 31.3694 178.156 32.186C177.554 32.9597 176.737 33.6474 175.663 34.2061C174.588 34.7649 173.385 35.1947 171.966 35.4956C170.634 35.7105 169.13 35.8394 167.539 35.8394ZM169.216 23.074C168.227 23.074 167.282 22.9451 166.293 22.6872C165.304 22.4293 164.445 22.0425 163.671 21.5697C162.898 21.0539 162.253 20.4522 161.78 19.6786C161.307 18.9049 161.092 18.0453 161.092 17.0137C161.092 15.9822 161.35 15.0796 161.866 14.3059C162.382 13.5323 163.026 12.8876 163.843 12.3718C164.66 11.856 165.519 11.4692 166.465 11.2113C167.411 10.9534 168.313 10.8245 169.259 10.8245C170.247 10.8245 171.236 10.9534 172.224 11.2113C173.213 11.4692 174.073 11.856 174.846 12.3288C175.62 12.8016 176.265 13.4463 176.737 14.22C177.21 14.9936 177.468 15.8532 177.468 16.8418C177.468 17.8734 177.21 18.776 176.694 19.5496C176.179 20.3233 175.491 20.968 174.674 21.4838C173.858 21.9995 172.955 22.3864 172.009 22.6442C171.021 22.9451 170.118 23.074 169.216 23.074ZM169.259 19.4207C169.86 19.4207 170.376 19.2917 170.763 19.0768C171.193 18.8619 171.494 18.561 171.752 18.1742C171.966 17.7874 172.095 17.4006 172.095 16.9708C172.095 16.5409 171.966 16.1541 171.752 15.7673C171.537 15.4234 171.236 15.1226 170.806 14.9077C170.376 14.6928 169.86 14.6068 169.259 14.6068C168.657 14.6068 168.098 14.7357 167.668 14.9506C167.239 15.1656 166.895 15.4664 166.68 15.8103C166.465 16.1541 166.336 16.5839 166.336 17.0137C166.336 17.4435 166.465 17.8304 166.68 18.2172C166.895 18.604 167.239 18.8619 167.668 19.0768C168.098 19.2917 168.657 19.4207 169.259 19.4207ZM174.416 13.6182L172.697 12.3718C172.826 11.5552 173.084 10.8245 173.471 10.2227C173.858 9.62101 174.287 9.14822 174.846 8.80437C175.405 8.46052 176.007 8.20264 176.694 8.03071C177.382 7.85879 178.07 7.77283 178.757 7.77283V12.1569C177.855 12.1569 177.038 12.2428 176.308 12.4148C175.577 12.6297 174.932 13.0165 174.416 13.6182Z" fill="#002956"/>
<path d="M43.8302 18.776C43.8302 15.3805 43.8732 11.9421 42.3258 8.80446C40.4347 5.02213 37.2111 3.21693 33.1709 2.35731C30.4201 1.79856 27.5834 1.32577 24.7896 1.19683C20.2336 0.981924 15.4198 1.7126 11.6804 4.54934C8.41387 7.04224 7.81214 10.6956 7.16742 14.5209C6.65165 17.6156 6.35078 20.7532 6.60867 23.8908C6.82357 26.6845 7.25338 29.4783 9.14455 31.7133C11.0357 33.9483 13.7865 35.2807 16.6232 35.5816C23.887 36.3553 34.0735 35.9684 37.8128 34.4641C43.6583 32.1001 47.9564 24.5355 43.8302 18.776Z" fill="#EDBA89"/>
<path d="M19.8033 7.77299C19.4595 7.68703 19.1586 7.51511 18.8578 7.3002C18.6429 7.12828 18.4279 6.87039 18.385 6.61251C18.342 6.1827 18.6428 5.79587 18.9867 5.53798C19.7604 4.93625 20.8349 4.63538 21.8234 4.76433C22.0813 4.80731 22.2962 4.85029 22.5111 4.97923C22.9839 5.23712 23.2418 5.75289 23.2418 6.26866C23.1559 7.73001 20.8779 8.03088 19.8033 7.77299Z" fill="#002956"/>
<path d="M35.4489 8.46055C35.7498 8.37459 36.0507 8.24565 36.3085 8.03074C36.5234 7.85882 36.6954 7.64391 36.7383 7.38603C36.7813 6.9992 36.4805 6.65535 36.1796 6.39747C35.4489 5.83871 34.5033 5.58083 33.5578 5.70977C33.3428 5.75275 33.1279 5.79573 32.913 5.88169C32.4832 6.0966 32.2253 6.61237 32.2683 7.08516C32.3543 8.41757 34.4604 8.71844 35.4489 8.46055Z" fill="#002956"/>
<path d="M16.3221 11.2115C16.8808 10.6957 17.6545 10.3089 18.6431 10.051C19.3308 9.87905 20.0614 9.79309 20.7921 9.79309C21.9526 9.79309 23.1131 10.008 24.2306 10.4378C24.6174 10.5667 25.3911 11.0825 25.7779 11.5553C26.1647 12.0711 26.4226 12.8447 26.4656 13.6614C26.5086 14.3921 26.4226 15.1227 26.1647 16.1113C25.7349 17.7446 24.1876 19.077 22.2964 19.4638C20.8781 19.7647 19.3308 19.5498 18.0413 18.8621C16.7519 18.1744 15.7633 16.9709 15.3335 15.6385C14.8607 14.0052 15.2476 12.2 16.3221 11.2115Z" fill="white"/>
<path d="M37.0386 9.836C37.6833 9.66407 38.3281 9.62109 38.9728 9.62109C39.8754 9.62109 40.821 9.79302 41.7236 10.0509C41.8525 10.0939 42.0244 10.1369 42.1534 10.1798C42.4972 10.3088 43.2279 10.7386 43.5288 11.1684C43.8726 11.6412 44.1305 12.3289 44.1735 13.0596C44.2165 13.7043 44.1305 14.392 43.9156 15.2946C43.7437 15.9823 43.3139 16.627 42.7551 17.1428C42.1104 17.7445 41.2937 18.1743 40.3911 18.3462C39.1017 18.6041 37.6833 18.4322 36.5229 17.7875C35.3624 17.1428 34.4598 16.0682 34.0729 14.8218C33.6002 13.3604 33.944 11.7272 34.9326 10.8246C35.4054 10.4377 36.136 10.0509 37.0386 9.836Z" fill="white"/>
<path d="M20.6635 16.1972C21.1363 15.7674 21.0074 14.9078 20.9214 14.2201C20.8354 13.4894 20.6635 12.6728 20.0618 12.4149C19.4601 12.157 18.2996 13.1885 18.5145 14.6069C18.7294 16.0253 20.1907 16.627 20.6635 16.1972Z" fill="#002956"/>
<path d="M38.7161 15.6383C39.1459 15.2514 39.0169 14.4778 38.931 13.876C38.845 13.2313 38.7161 12.5007 38.1573 12.2428C37.5986 11.9849 36.567 12.9305 36.7819 14.2199C36.9968 15.4663 38.2863 16.0251 38.7161 15.6383Z" fill="#002956"/>
<path d="M37.8984 3.51777C38.2423 2.05642 39.7036 1.15382 41.251 0.766987C42.9702 0.337178 44.7754 1.06785 45.764 2.48622C47.0104 4.24844 47.6551 6.13961 48.1709 8.11673C48.2569 8.46058 48.0419 9.10529 47.5692 9.36318C46.9674 9.70703 46.0648 9.57808 45.2912 9.36318C44.6035 9.19125 43.9158 8.97635 43.2711 8.71846C43.2711 8.71846 43.2711 8.71846 43.2711 8.67548C42.1106 6.39749 40.3484 4.67825 37.8984 3.51777Z" fill="#002956"/>
<path d="M6.86626 15.8963C6.56539 15.5955 6.26452 15.3376 6.00664 15.0367C5.49086 18.3892 5.31894 21.269 5.53385 23.9338C5.74875 26.6846 6.17856 29.8222 8.32761 32.3581C10.3477 34.722 13.3134 36.2693 16.494 36.6132C18.9009 36.8711 21.6947 37 24.5314 37C29.99 37 35.4916 36.4842 38.1994 35.4097C41.8957 33.9483 44.9904 30.5529 46.1079 26.7705C46.9675 23.8048 46.5377 20.8392 44.9044 18.3892V18.2173C44.9044 18.1314 44.9044 18.0454 44.9044 17.9594C45.4202 17.3147 45.764 16.584 45.9789 15.8104C46.2798 14.6929 46.3658 13.7903 46.3228 12.8877C46.2368 11.7272 45.85 10.6097 45.2483 9.83603C44.7325 9.14834 43.9158 8.63256 43.3141 8.3317C43.3141 8.3317 43.3141 8.3317 43.3141 8.28872C43.3141 8.28872 43.3141 8.28872 43.3141 8.24574C42.0677 5.70986 40.1335 3.8187 37.5117 2.57225C36.3082 2.0135 34.9328 1.54071 33.4285 1.23984C30.076 0.552144 27.3682 0.165315 24.8753 0.0363721C19.4167 -0.221514 14.9037 0.895992 11.5082 3.25995C11.938 3.86168 12.1529 4.59235 12.2389 5.36601C12.2819 5.32303 12.3248 5.32303 12.3248 5.28005C15.1186 3.17398 18.815 2.14244 23.3709 2.14244C23.8008 2.14244 24.2735 2.14244 24.7463 2.18542C27.1103 2.27138 29.7751 2.65821 32.9557 3.34591C36.3082 4.0336 38.6722 5.40899 40.3054 7.51506C39.016 7.34314 37.7266 7.4291 36.5231 7.72996C35.2767 8.03083 34.2451 8.5466 33.4715 9.27728C32.9987 9.70709 32.6548 10.2229 32.354 10.8246C30.9356 10.2658 29.3453 10.3088 27.9699 10.9535C27.841 10.6957 27.669 10.4378 27.4971 10.1799C26.8094 9.27728 25.6489 8.58958 25.0042 8.37468C22.7692 7.55804 20.3623 7.38612 18.1703 7.90189C16.8378 8.24574 15.7203 8.80449 14.9037 9.57815C13.2274 11.1255 12.6257 13.7903 13.3994 16.1972C14.0011 18.0884 15.3335 19.7217 17.0957 20.6672C18.2132 21.269 19.5027 21.6128 20.7921 21.6558C20.7491 21.8277 20.7061 21.9996 20.6202 22.1716C19.9755 24.5355 20.4912 25.9109 21.4798 26.8995C22.2534 27.6731 23.242 28.1459 24.3165 28.3608C24.9183 28.4898 25.477 28.7906 25.8638 29.3064C25.9068 29.3494 25.9498 29.4354 26.0358 29.4783C26.6805 30.209 27.5831 30.6388 28.4857 30.9397C29.7751 31.3695 31.1935 31.4984 32.5259 31.2835C34.1162 31.0686 36.2223 30.0371 37.1678 28.4468C37.5117 27.8451 38.1564 27.5012 38.8441 27.3723C41.7668 26.8995 42.1536 23.547 40.2195 20.4953C40.4344 20.4523 40.6923 20.4523 40.9072 20.4093C41.7238 20.2374 42.4975 19.9366 43.1852 19.5067C44.8184 21.9567 44.6035 24.4496 44.1308 26.1258C43.1852 29.3064 40.6063 32.1432 37.4687 33.3896C34.0732 34.722 24.2306 35.2378 16.7949 34.4211C14.173 34.1203 11.6801 32.8738 10.0468 30.8967C8.32761 28.8336 7.94078 26.1258 7.76886 23.7189C7.59693 21.4839 7.68289 19.034 8.06972 16.2832C7.51097 16.2832 7.08116 16.1113 6.86626 15.8963ZM26.2507 15.8104C26.2077 15.8963 26.2077 15.9823 26.1647 16.1113C25.7349 17.7445 24.1876 19.0769 22.2964 19.4638C22.0815 19.5067 21.8666 19.5497 21.6517 19.5497C20.4053 19.6787 19.1158 19.4208 18.0413 18.862C16.7519 18.1743 15.7633 16.9709 15.3335 15.6385C14.8177 14.0052 15.2046 12.243 16.2791 11.2114C16.8378 10.6957 17.6115 10.3088 18.6001 10.0509C19.2878 9.87901 20.0184 9.79305 20.7491 9.79305C21.9096 9.79305 23.0701 10.008 24.1876 10.4378C24.5744 10.5667 25.3481 11.0825 25.7349 11.5553C26.1217 12.071 26.3796 12.8447 26.4226 13.6613C26.5086 14.3061 26.4226 14.9508 26.2507 15.8104ZM32.0101 15.4236C31.0645 15.2516 30.076 15.1657 28.9585 15.2087C28.8725 15.2087 28.7865 15.2087 28.6576 15.2516C28.6146 15.2516 28.5716 15.2516 28.4857 15.2946C28.5716 14.6929 28.6146 14.0911 28.5716 13.5324C28.5716 13.4894 28.5716 13.4464 28.5716 13.3605C29.5172 12.8017 30.7207 12.7587 31.7093 13.2315C31.7093 13.9622 31.7952 14.6929 32.0101 15.4236ZM43.9158 15.3376C43.7439 16.0253 43.3141 16.67 42.7554 17.1858C42.1106 17.7875 41.294 18.2173 40.3914 18.3892C39.7037 18.5182 39.016 18.5612 38.3713 18.4322C37.7266 18.3463 37.0819 18.1314 36.5231 17.8305C35.7924 17.4437 35.1477 16.8419 34.6749 16.1542C34.4171 15.7674 34.2021 15.3376 34.0302 14.8648C33.5574 13.4035 33.9013 11.7702 34.8898 10.8676C35.4056 10.3948 36.0933 10.0509 36.9959 9.83603C37.6406 9.66411 38.2853 9.62113 38.9301 9.62113C39.8327 9.62113 40.7782 9.79305 41.6808 10.0509C41.8098 10.0939 41.9817 10.1369 42.1106 10.1799C42.4545 10.3088 43.1852 10.7386 43.486 11.1684C43.8299 11.6412 44.0878 12.3289 44.1308 13.0596C44.2167 13.7473 44.1308 14.435 43.9158 15.3376Z" fill="#002956"/>
<path d="M0.118481 6.82724C-0.139405 6.0106 0.0325188 5.108 0.54829 4.4203C2.43945 2.05635 6.47966 -0.17866 9.83218 1.36865C10.5629 1.7125 11.0786 2.18529 11.4225 2.70106C11.8953 3.34578 12.1102 4.11944 12.2391 4.93607C12.3681 5.83867 12.3251 6.82724 12.2821 7.72984C12.1961 9.87888 11.6804 12.0279 10.8207 14.0051C10.348 15.0366 9.74622 16.1111 8.75766 16.455C8.41381 16.5839 8.02698 16.5839 7.68313 16.5409C7.21034 16.455 6.73755 16.283 6.52264 16.0681C6.22178 15.7673 5.87793 15.4664 5.57706 15.1655C3.17013 12.8016 1.193 10.1798 0.118481 6.82724Z" fill="#002956"/>
<path d="M24.2315 25.1375C24.3175 24.8366 24.6613 24.6647 25.0052 24.7506C26.6814 25.3524 28.0998 25.0515 29.2603 23.934C30.1199 23.0744 30.6787 21.742 30.7216 20.2806C30.7216 20.2376 30.7216 20.1946 30.7216 20.1517C30.0769 19.9797 29.3033 19.5499 28.7015 18.9912C27.9279 18.2605 29.0454 17.7447 31.1944 17.6588C33.3005 17.5728 34.461 18.0026 33.7733 18.8193C33.2575 19.421 32.5268 19.8938 31.9251 20.1087C31.9251 20.1517 31.9251 20.1946 31.9251 20.2376C32.0111 21.4411 32.4409 22.5156 33.1715 23.3323C33.9452 24.1489 35.5355 24.7076 37.1688 24.2349C37.4696 24.1489 37.8135 24.3208 37.8995 24.6217C37.9854 24.9226 37.8135 25.2664 37.5126 25.3524C36.9969 25.4813 36.4811 25.5673 35.9653 25.5673C34.5469 25.5673 33.1715 25.0515 32.3119 24.1489C31.9681 23.7621 31.6242 23.3323 31.4093 22.8165C31.1085 23.5472 30.6787 24.2349 30.1199 24.7506C29.1313 25.7392 27.9709 26.212 26.6814 26.212C26.0367 26.212 25.349 26.083 24.6613 25.8252C24.2745 25.7822 24.1455 25.4813 24.2315 25.1375Z" fill="white"/>
</svg>
