<svg width="200.0" height="22.0" preserveAspectRatio="xMinYMin meet" viewBox="0 0 200 22" xmlns="http://www.w3.org/2000/svg" version="1.0" fill-rule="evenodd" xmlns:xlink="http://www.w3.org/1999/xlink"><title>...</title><desc>...</desc><g id="group" transform="scale(1,-1) translate(0,-22)" clip="0 0 200 22"><g transform=""><g transform=" matrix(0.212766,0,0,-0.209524,0,22)"><g transform=" matrix(1,0,0,-1,0,105)"><g transform=""><g transform=" matrix(1,0,0,-1,0,105.351)"><g transform=""><g transform=""><path d="M 156.178 73.759 L 156.178 31.606 C 156.178 14.158 142.03 0.001 124.569 0.001 L 117.076 0.001 L 117.076 18.865 C 117.076 44.998 95.825 66.251 69.677 66.251 L 50.834 66.251 L 50.834 73.759 C 50.834 91.201 64.984 105.351 82.42 105.351 L 124.569 105.351 C 142.03 105.351 156.178 91.201 156.178 73.759 Z " style="stroke: none; stroke-linecap: butt; stroke-width: 0.0; fill: rgb(63%,80%,21%); fill-rule: evenodd;"/></g><g transform=""><path d="M 156.178 73.759 L 156.178 31.606 C 156.178 14.158 142.03 0.001 124.569 0.001 L 117.076 0.001 L 117.076 18.865 C 117.076 44.998 95.825 66.251 69.677 66.251 L 50.834 66.251 L 50.834 73.759 C 50.834 91.201 64.984 105.351 82.42 105.351 L 124.569 105.351 C 142.03 105.351 156.178 91.201 156.178 73.759 " style="stroke: none; stroke-linecap: butt; stroke-width: 1; fill: none; fill-rule: evenodd;"/></g></g><g transform=""><g transform=""><path d="M 101.281 18.855 L 101.281 0 L 82.421 0 C 64.985 0 50.835 14.156 50.835 31.607 L 50.835 50.454 L 69.684 50.454 C 87.139 50.454 101.281 36.3 101.281 18.855 Z M 13.418 14.584 L 0 14.584 L 0 27.985 C 0 40.386 10.065 50.455 22.472 50.455 L 35.877 50.455 L 35.877 37.05 C 35.878 24.638 25.823 14.584 13.418 14.584 Z " style="stroke: none; stroke-linecap: butt; stroke-width: 0.0; fill: rgb(0%,41%,21%); fill-rule: evenodd;"/></g><g transform=""><path d="M 101.281 18.855 L 101.281 0 L 82.421 0 C 64.985 0 50.835 14.156 50.835 31.607 L 50.835 50.454 L 69.684 50.454 C 87.139 50.454 101.281 36.3 101.281 18.855 M 13.418 14.584 L 0 14.584 L 0 27.985 C 0 40.386 10.065 50.455 22.472 50.455 L 35.877 50.455 L 35.877 37.05 C 35.878 24.638 25.823 14.584 13.418 14.584 " style="stroke: none; stroke-linecap: butt; stroke-width: 1; fill: none; fill-rule: evenodd;"/></g></g><g transform=""><g transform=""><path d="M 269.253 31.359 L 269.253 102.243 C 269.253 102.243 269.673 105.04 272.441 105.04 L 284.378 105.04 C 284.378 105.04 287.066 104.83 287.066 102.02 L 287.066 31.359 C 287.066 31.359 287.152 28.041 283.859 28.041 L 272.026 28.041 C 272.026 28.042 269.253 27.834 269.253 31.359 Z M 313.544 28.093 L 302.993 28.093 C 302.993 28.093 299.165 27.818 299.971 31.353 C 300.802 34.91 317.673 94.962 317.673 94.962 C 317.673 94.962 321.102 104.909 333.866 104.909 C 346.607 104.909 349.362 95.227 349.362 95.227 L 367.196 32.443 C 367.196 32.443 368.563 27.818 365.278 27.818 L 352.52 27.818 C 352.52 27.818 349.636 28.093 348.941 31.225 C 348.27 34.353 336.065 88.404 336.065 88.404 C 336.065 88.404 335.776 90.445 333.864 90.445 C 331.94 90.445 331.252 88.129 331.252 88.129 L 318.355 31.353 C 318.357 31.353 317.882 27.948 313.544 28.093 Z M 200.879 28.093 L 190.305 28.093 C 190.305 28.093 186.482 27.818 187.315 31.359 C 188.113 34.922 205.002 95.076 205.002 95.076 C 205.002 95.076 208.427 105.04 221.186 105.04 C 233.944 105.04 236.693 95.341 236.693 95.341 L 254.515 32.451 C 254.515 32.451 255.893 27.818 252.595 27.818 L 239.846 27.818 C 239.846 27.818 236.953 28.093 236.269 31.231 C 235.592 34.364 223.381 88.506 223.381 88.506 C 223.381 88.506 223.103 90.55 221.187 90.55 C 219.256 90.55 218.587 88.23 218.587 88.23 L 205.673 31.359 C 205.673 31.359 205.213 27.948 200.879 28.093 Z M 379.002 30.742 L 379.002 78.076 C 379.002 78.076 379.968 105.039 410.271 105.039 C 440.58 105.039 440.99 79.431 440.99 79.431 L 440.99 31.141 C 440.99 31.141 441.391 28 437.972 28 L 426.181 28 C 426.181 28 423.581 27.44 423.581 31.01 L 423.581 79.851 C 423.581 79.851 422.06 89.983 410.412 89.983 C 398.75 89.983 396.96 79.58 396.96 79.58 L 396.96 32.109 C 396.96 32.109 397.243 27.859 393.81 27.859 L 381.468 27.859 C 381.469 27.858 379.002 27.858 379.002 30.742 Z M 503.408 43.117 C 503.408 43.117 488.859 41.75 482.841 41.886 C 476.802 42.028 473.092 42.703 473.092 47.051 C 473.092 51.42 478.448 53.401 482.701 55.87 C 487.51 58.675 498.592 64.892 501.877 67.886 C 505.196 70.872 509.444 75.509 509.444 83.809 C 509.444 92.113 505.049 100.008 496.963 102.86 C 488.858 105.72 473.775 105.041 467.612 104.085 C 461.425 103.132 459.79 102.728 458.682 102.32 C 457.589 101.912 456.072 101.091 456.072 98.765 L 456.072 92.114 C 456.072 92.114 455.951 88.293 460.195 89.112 C 464.447 89.931 475.691 91.426 481.465 91.143 C 487.228 90.875 491.197 90.329 491.617 85.304 C 492.009 80.279 485.987 78.37 480.081 74.544 C 474.179 70.742 468.836 68.02 464.325 64.341 C 459.791 60.671 455.534 53.73 455.534 46.243 C 455.534 38.752 460.723 27.86 480.633 27.86 C 497.919 27.86 504.521 29.768 505.462 30.052 C 506.428 30.314 507.667 31 507.667 33.176 C 507.667 35.355 507.709 40.688 507.709 40.688 C 507.709 40.688 508.074 43.651 503.408 43.117 Z M 269.253 3.467 L 269.253 14.872 C 269.253 14.872 269.578 17.763 272.026 17.763 L 284.072 17.763 C 284.072 17.763 287.066 17.972 287.066 14.782 L 287.066 3.467 C 287.066 3.467 287.577 0.285 283.357 0.285 L 272.861 0.285 C 268.854 0.285 269.253 3.467 269.253 3.467 Z " style="stroke: none; stroke-linecap: butt; stroke-width: 0.0; fill: rgb(38%,41%,43%); fill-rule: evenodd;"/></g><g transform=""><path d="M 269.253 31.359 L 269.253 102.243 C 269.253 102.243 269.673 105.04 272.441 105.04 L 284.378 105.04 C 284.378 105.04 287.066 104.83 287.066 102.02 L 287.066 31.359 C 287.066 31.359 287.152 28.041 283.859 28.041 L 272.026 28.041 C 272.026 28.042 269.253 27.834 269.253 31.359 M 313.544 28.093 L 302.993 28.093 C 302.993 28.093 299.165 27.818 299.971 31.353 C 300.802 34.91 317.673 94.962 317.673 94.962 C 317.673 94.962 321.102 104.909 333.866 104.909 C 346.607 104.909 349.362 95.227 349.362 95.227 L 367.196 32.443 C 367.196 32.443 368.563 27.818 365.278 27.818 L 352.52 27.818 C 352.52 27.818 349.636 28.093 348.941 31.225 C 348.27 34.353 336.065 88.404 336.065 88.404 C 336.065 88.404 335.776 90.445 333.864 90.445 C 331.94 90.445 331.252 88.129 331.252 88.129 L 318.355 31.353 C 318.357 31.353 317.882 27.948 313.544 28.093 M 200.879 28.093 L 190.305 28.093 C 190.305 28.093 186.482 27.818 187.315 31.359 C 188.113 34.922 205.002 95.076 205.002 95.076 C 205.002 95.076 208.427 105.04 221.186 105.04 C 233.944 105.04 236.693 95.341 236.693 95.341 L 254.515 32.451 C 254.515 32.451 255.893 27.818 252.595 27.818 L 239.846 27.818 C 239.846 27.818 236.953 28.093 236.269 31.231 C 235.592 34.364 223.381 88.506 223.381 88.506 C 223.381 88.506 223.103 90.55 221.187 90.55 C 219.256 90.55 218.587 88.23 218.587 88.23 L 205.673 31.359 C 205.673 31.359 205.213 27.948 200.879 28.093 M 379.002 30.742 L 379.002 78.076 C 379.002 78.076 379.968 105.039 410.271 105.039 C 440.58 105.039 440.99 79.431 440.99 79.431 L 440.99 31.141 C 440.99 31.141 441.391 28 437.972 28 L 426.181 28 C 426.181 28 423.581 27.44 423.581 31.01 L 423.581 79.851 C 423.581 79.851 422.06 89.983 410.412 89.983 C 398.75 89.983 396.96 79.58 396.96 79.58 L 396.96 32.109 C 396.96 32.109 397.243 27.859 393.81 27.859 L 381.468 27.859 C 381.469 27.858 379.002 27.858 379.002 30.742 M 503.408 43.117 C 503.408 43.117 488.859 41.75 482.841 41.886 C 476.802 42.028 473.092 42.703 473.092 47.051 C 473.092 51.42 478.448 53.401 482.701 55.87 C 487.51 58.675 498.592 64.892 501.877 67.886 C 505.196 70.872 509.444 75.509 509.444 83.809 C 509.444 92.113 505.049 100.008 496.963 102.86 C 488.858 105.72 473.775 105.041 467.612 104.085 C 461.425 103.132 459.79 102.728 458.682 102.32 C 457.589 101.912 456.072 101.091 456.072 98.765 L 456.072 92.114 C 456.072 92.114 455.951 88.293 460.195 89.112 C 464.447 89.931 475.691 91.426 481.465 91.143 C 487.228 90.875 491.197 90.329 491.617 85.304 C 492.009 80.279 485.987 78.37 480.081 74.544 C 474.179 70.742 468.836 68.02 464.325 64.341 C 459.791 60.671 455.534 53.73 455.534 46.243 C 455.534 38.752 460.723 27.86 480.633 27.86 C 497.919 27.86 504.521 29.768 505.462 30.052 C 506.428 30.314 507.667 31 507.667 33.176 C 507.667 35.355 507.709 40.688 507.709 40.688 C 507.709 40.688 508.074 43.651 503.408 43.117 M 269.253 3.467 L 269.253 14.872 C 269.253 14.872 269.578 17.763 272.026 17.763 L 284.072 17.763 C 284.072 17.763 287.066 17.972 287.066 14.782 L 287.066 3.467 C 287.066 3.467 287.577 0.285 283.357 0.285 L 272.861 0.285 C 268.854 0.285 269.253 3.467 269.253 3.467 " style="stroke: none; stroke-linecap: butt; stroke-width: 1; fill: none; fill-rule: evenodd;"/></g></g><g transform=""><g transform=""><path d="M 539.748 104.295 C 539.339 104.704 538.86 104.909 538.314 104.909 L 526.332 104.909 C 525.785 104.909 525.29 104.704 524.847 104.295 C 524.403 103.885 524.182 103.408 524.182 102.861 L 524.182 89.957 C 524.182 89.411 524.403 88.95 524.847 88.574 C 525.29 88.199 525.785 88.011 526.332 88.011 L 538.314 88.011 C 538.86 88.011 539.338 88.199 539.748 88.574 C 540.158 88.95 540.362 89.411 540.362 89.957 L 540.362 102.861 C 540.362 103.408 540.158 103.885 539.748 104.295 Z M 598.994 102.556 C 598.618 102.86 598.055 103.114 597.305 103.317 C 596.211 103.656 594.299 104.027 591.57 104.433 C 588.839 104.838 585.664 105.041 582.046 105.041 C 578.153 105.041 574.38 104.499 570.729 103.419 C 567.076 102.338 563.85 100.53 561.051 97.995 C 558.25 95.46 555.997 92.133 554.291 88.01 C 552.584 83.889 551.73 78.82 551.73 72.804 L 551.73 60.029 C 551.73 54.015 552.584 48.946 554.291 44.823 C 555.997 40.702 558.25 37.389 561.051 34.888 C 563.85 32.388 567.075 30.597 570.729 29.515 C 574.403198 28.430599 578.215128 27.884257 582.046 27.893 C 585.664 27.893 588.839 28.097 591.57 28.506 C 594.299 28.914 596.212 29.289 597.305 29.627 C 598.055 29.833 598.618 30.071 598.994 30.343 C 599.368 30.615 599.557 31.125 599.557 31.873 L 599.557 41.773 C 599.557 43.131 598.907 43.809 597.611 43.809 L 597.304 43.809 C 594.998922 43.650308 592.694566 43.481306 590.391 43.302 C 587.761 43.099 585.014 42.998 582.146 42.998 C 580.371 42.998 578.715 43.251 577.179 43.756 C 575.643 44.263 574.294 45.174 573.134 46.489 C 571.972 47.804 571.068 49.557 570.42 51.75 C 569.77 53.942 569.446 56.723 569.446 60.094 L 569.446 72.839 C 569.446 76.212 569.769 78.993 570.42 81.185 C 571.067 83.377 571.972 85.131 573.134 86.446 C 574.294 87.761 575.643 88.671 577.179 89.177 C 578.715 89.684 580.37 89.936 582.146 89.936 C 585.014 89.936 587.761 89.835 590.391 89.632 C 593.018 89.429 595.323 89.262 597.304 89.125 L 597.611 89.125 C 598.907 89.125 599.557 89.802 599.557 91.152 L 599.557 100.986 C 599.558 101.729 599.368 102.252 598.994 102.556 Z M 667.458 72.423 C 667.458 78.292 666.674 83.286 665.105 87.401 C 663.537 91.517 661.391 94.874 658.665 97.471 C 655.937 100.069 652.734 101.958 649.054 103.139 C 645.373 104.318 641.419 104.91 637.195 104.91 C 632.968 104.91 629.014 104.318 625.335 103.139 C 621.654 101.959 618.45 100.069 615.724 97.471 C 612.997 94.874 610.851 91.517 609.283 87.401 C 607.716 83.286 606.932 78.292 606.932 72.423 L 606.932 60.379 C 606.932 54.509 607.715 49.517 609.283 45.401 C 610.851 41.286 612.998 37.929 615.724 35.331 C 618.451 32.735 621.655 30.845 625.335 29.663 C 629.015 28.483 632.969 27.892 637.195 27.892 C 641.42 27.892 645.374 28.483 649.054 29.663 C 652.735 30.844 655.938 32.734 658.665 35.331 C 661.392 37.929 663.537 41.286 665.105 45.401 C 666.673 49.517 667.458 54.509 667.458 60.379 L 667.458 72.423 Z M 649.945 60.352 C 649.945 54.187 648.903 49.748 646.821 47.037 C 644.738 44.327 641.547 42.972 637.246 42.972 C 632.944 42.972 629.769 44.327 627.721 47.037 C 625.673 49.748 624.649 54.186 624.649 60.352 L 624.649 72.45 C 624.649 78.616 625.673 83.054 627.721 85.764 C 629.77 88.475 632.945 89.83 637.246 89.83 C 641.547 89.83 644.738 88.475 646.821 85.764 C 648.903 83.053 649.945 78.616 649.945 72.45 L 649.945 60.352 Z M 748.826 104.598 C 748.466656 104.801353 748.060893 104.908477 747.648 104.909 L 734.13 104.909 C 733.651 104.909 733.26 104.701 732.952 104.287 C 732.64253 103.867403 732.480454 103.35727 732.491 102.836 L 732.491 59.612 C 732.491 59.06 732.32 58.783 731.979 58.783 C 731.705 58.783 731.431 59.026 731.16 59.509 L 721.942 76.613 C 721.258 77.788 720.235 78.375 718.87 78.375 L 710.677 78.375 C 709.311 78.375 708.286 77.788 707.605 76.613 L 698.387 59.509 C 698.114 59.026 697.84 58.783 697.568 58.783 C 697.226 58.783 697.056 59.06 697.056 59.612 L 697.056 102.837 C 697.056 103.39 696.903 103.873 696.595 104.288 C 696.288 104.702 695.894 104.91 695.417 104.91 L 681.898 104.91 C 681.488 104.91 681.094 104.806 680.72 104.599 C 680.344 104.392 680.157 104.013 680.157 103.459 L 680.157 31.418 C 680.157 30.313 680.498 29.448 681.181 28.826 C 681.863 28.204 682.75 27.893 683.843 27.893 L 693.471 27.893 C 695.519 27.893 697.02 28.826 697.977 30.692 L 713.646 60.234 C 714.056 61.133 714.43 61.581 714.773 61.581 C 715.045 61.581 715.421 61.133 715.9 60.234 L 731.569 30.692 C 732.524 28.826 734.027 27.893 736.076 27.893 L 745.703 27.893 C 746.794 27.893 747.682 28.222 748.365 28.878 C 749.047 29.535 749.389 30.416 749.389 31.521 L 749.389 103.458 C 749.39 104.012 749.201 104.391 748.826 104.598 Z M 859.493 104.736 C 859.133656 104.939353 858.727893 105.046477 858.315 105.047 L 844.796 105.047 C 844.317 105.047 843.926 104.839 843.618 104.425 C 843.30853 104.005403 843.146454 103.49527 843.157 102.974 L 843.157 59.75 C 843.157 59.198 842.986 58.921 842.645 58.921 C 842.371 58.921 842.097 59.164 841.826 59.647 L 832.608 76.751 C 831.924 77.926 830.901 78.513 829.536 78.513 L 821.343 78.513 C 819.977 78.513 818.952 77.926 818.271 76.751 L 809.053 59.647 C 808.78 59.164 808.506 58.921 808.234 58.921 C 807.892 58.921 807.722 59.198 807.722 59.75 L 807.722 102.975 C 807.722 103.528 807.569 104.011 807.261 104.426 C 806.954 104.84 806.56 105.048 806.083 105.048 L 792.564 105.048 C 792.154 105.048 791.76 104.944 791.386 104.737 C 791.01 104.53 790.823 104.151 790.823 103.597 L 790.823 31.556 C 790.823 30.451 791.164 29.586 791.847 28.964 C 792.529 28.342 793.416 28.031 794.509 28.031 L 804.137 28.031 C 806.185 28.031 807.686 28.964 808.643 30.83 L 824.312 60.372 C 824.722 61.271 825.096 61.719 825.439 61.719 C 825.711 61.719 826.087 61.271 826.566 60.372 L 842.235 30.83 C 843.19 28.964 844.693 28.031 846.742 28.031 L 856.369 28.031 C 857.46 28.031 858.348 28.36 859.031 29.016 C 859.713 29.673 860.055 30.554 860.055 31.659 L 860.055 103.596 C 860.056 104.15 859.868 104.53 859.493 104.736 Z M 778.065 104.295 C 777.656 104.704 777.177 104.909 776.631 104.909 L 764.649 104.909 C 764.102 104.909 763.607 104.704 763.164 104.295 C 762.72 103.885 762.499 103.408 762.499 102.861 L 762.499 89.957 C 762.499 89.411 762.72 88.95 763.164 88.574 C 763.607 88.199 764.102 88.011 764.649 88.011 L 776.631 88.011 C 777.177 88.011 777.655 88.199 778.065 88.574 C 778.475 88.95 778.679 89.411 778.679 89.957 L 778.679 102.861 C 778.68 103.408 778.476 103.885 778.065 104.295 Z M 940.345 103.873 C 940.345 104.564 939.895 104.909 938.998 104.909 L 922.517 104.909 C 921.825 104.909 921.289 104.789 920.911 104.546 C 920.53 104.305 920.168 103.908 919.822 103.354 L 906.347 81.483 L 894.219 102.836 C 893.873 103.458 893.494 103.96 893.079 104.339 C 892.665 104.72 892.181 104.909 891.628 104.909 L 876.287 104.909 C 875.251 104.909 874.732 104.46 874.732 103.562 C 874.732 103.354 874.8 103.113 874.94 102.836 L 896.604 65.417 L 874.732 29.863 C 874.592 29.588 874.524 29.38 874.524 29.241 C 874.524 28.896 874.68 28.585 874.991 28.308 C 875.288353 28.037408 875.676975 27.889174 876.079 27.893 L 892.768 27.893 C 893.32 27.893 893.805 28.101 894.219 28.515 C 894.633 28.93 895.012 29.38 895.36 29.863 L 908.213 50.802 L 919.822 29.863 C 920.113218 29.360131 920.480573 28.905407 920.911 28.515 C 921.36 28.101 921.86 27.893 922.414 27.893 L 937.755 27.893 C 938.169 27.893 938.532 28.033 938.843 28.308 C 939.155 28.585 939.31 28.895 939.31 29.241 C 939.31 29.38 939.24 29.587 939.102 29.863 L 917.749 66.453 L 940.035 102.836 C 940.242 103.251 940.345 103.598 940.345 103.873 Z " style="stroke: none; stroke-linecap: butt; stroke-width: 1; fill: rgb(63%,80%,21%); fill-rule: evenodd;"/></g></g></g></g></g></g></g></g></svg>